<svg xmlns="http://www.w3.org/2000/svg" xmlns:svg="http://www.w3.org/2000/svg" xmlns:xlink="http://www.w3.org/1999/xlink" version="1.0" height="500pt" width="760.0000190734863pt" viewBox="325 422 768.0000190734863 506" ><defs><style type="text/css">
            @font-face {
                font-family: 'noto_regular';
                src: url('https://app.creately.com/diagram/assets/fonts/noto/noto-regular.woff') format('woff'),
                     url('https://app.creately.com/diagram/assets/fonts/noto/noto-regular.woff2') format('woff2');
                font-weight: normal;
                font-style: normal;
            }
        p {
            margin: 0;
        }
        </style></defs><defs><style>
            span{ display: inline-block; }
        </style></defs><g id="8a1ioe040r"><g transform="translate(330 425)"><rect x="0" y="0" width="760.0000190734863" height="500" fill="rgba(255,255,255,1)" stroke="#5e96ce" stroke-width="0.5" stroke-linecap="round" stroke-linejoin="round"/></g><g transform="translate(677.0000095367432, 665.5) rotate(0, 33, 9.5)" width="66" height="19"><text text-decoration="none" x="2.5" fill="rgb(0, 0, 0)" font-size="10pt" font-family="Lato"  y="17">-Attribute&#160;</text><text text-decoration="none" x="63.5" fill="#4b4b4b" font-size="10pt" font-family="noto_regular"  y="17"></text></g></g><g id="1wlj1x65xu"><g transform="translate(405 430)"><path d="M 0,490.0000190734863 L 305.00004291534424,0 L 610.0000858306885,490.0000190734863 L 0,490.0000190734863 Z" fill="rgb(255, 255, 255)" stroke="rgb(94, 150, 206)" stroke-width="0.5" vector-effect="non-scaling-stroke" stroke-dasharray=""/></g></g><g id="1alxuwpsj4"><g transform="translate(660 515)"><path d="M 94.70497369766235,0.5487805008888245 L 0.2950310707092285,0.5487805008888245 L 0.2950310707092285,44.45122057199478 L 94.70497369766235,44.45122057199478 L 94.70497369766235,0.5487805008888245" fill="rgb(94, 150, 206)" stroke="rgb(94, 150, 206)" stroke-width="1" stroke-linecap="round" stroke-linejoin="round" vector-effect="non-scaling-stroke"/></g><g transform="translate(678.35, 526.6) rotate(0, 0, 0)" width="64" height="19"><text text-decoration="none" x="0" fill="#ffffff" font-size="11pt" font-family="Lato"  y="17">Domain&#160;</text><text text-decoration="none" x="59" fill="#4b4b4b" font-size="10pt" font-family="noto_regular"  y="17"></text></g></g><g id="wkuujtl945"><g><path d="M 330,585 L 1090,585" fill="none" stroke="#a0a0a0" stroke-width="1.5" stroke-linecap="round" stroke-linejoin="round" stroke-dasharray="5 5 2 5"/></g></g><g id="1x5mo7d3qh"><g><path d="M 330,725 L 1090,725" fill="none" stroke="#a0a0a0" stroke-width="1.5" stroke-linecap="round" stroke-linejoin="round" stroke-dasharray="5 5 2 5"/></g></g><g id="1tet30fhle"><g transform="translate(600 650)"><path d="M 79.75148042678833,0.5 L 0.24844697952270509,0.5 L 0.24844697952270509,40.5 L 79.75148042678833,40.5 L 79.75148042678833,0.5" fill="rgb(94, 150, 206)" stroke="rgb(94, 150, 206)" stroke-width="1" stroke-linecap="round" stroke-linejoin="round" vector-effect="non-scaling-stroke"/></g><g transform="translate(618.0499993937502, 659.6) rotate(0, 0, 0)" width="46" height="19"><text text-decoration="none" x="0" fill="#ffffff" font-size="11pt" font-family="Lato"  y="17">Layer&#160;</text><text text-decoration="none" x="42" fill="#4b4b4b" font-size="10pt" font-family="noto_regular"  y="17"></text></g></g><g id="to5suzuocg"><g transform="translate(740 650)"><path d="M 79.75148042678833,0.5 L 0.24844697952270509,0.5 L 0.24844697952270509,40.5 L 79.75148042678833,40.5 L 79.75148042678833,0.5" fill="rgb(94, 150, 206)" stroke="rgb(94, 150, 206)" stroke-width="1" stroke-linecap="round" stroke-linejoin="round" vector-effect="non-scaling-stroke"/></g><g transform="translate(758.0499993937502, 659.6) rotate(0, 0, 0)" width="46" height="19"><text text-decoration="none" x="0" fill="#ffffff" font-size="11pt" font-family="Lato"  y="17">Layer&#160;</text><text text-decoration="none" x="42" fill="#4b4b4b" font-size="10pt" font-family="noto_regular"  y="17"></text></g></g><g id="2e8dodqcvf"><g><path d="M 710,560 L 710,605.0000005364418 L 675,605.0000005364418 L 640,605.0000005364418 L 640,650" fill="none" stroke="#5e96ce" stroke-width="1.5" stroke-linecap="round" stroke-linejoin="round"/></g></g><g id="1hn1ezlkru"><g><path d="M 710,560 L 710,605.0000005364418 L 745,605.0000005364418 L 780,605.0000005364418 L 780,650" fill="none" stroke="#5e96ce" stroke-width="1.5" stroke-linecap="round" stroke-linejoin="round"/></g></g><g id="2bru5hlm4t"><g transform="translate(495 805)"><path d="M 13.716,79.63553460426331 L 13.716,73.55834510688783 L 13.716,5.636678569030762 C 13.716,5.636678569030762 13.959,1.25948899230957 19.305,0.4916970573425289 C 19.305,0.4916970573425289 24.975,-0.6599908451080327 27.082,4.714552699661255 C 27.082,4.714552699661255 28.54,10.282207549285888 20.197000000000003,10.985629049301147 L 105.09400000000001,10.985629049301147 L 105.82300000000001,10.985629049301147 L 105.82300000000001,78.99570799179078 C 105.82300000000001,78.99570799179078 105.742,83.92353622894288 99.18,84.56181174659729 L 9.99,84.56181174659729 L 9.341,84.56181174659729 C 13.716,82.06610018424988 13.716,79.63553460426331 13.716,79.63553460426331 Z M 27.209,5.636678569030762 C 27.174,10.141057920837403 21.169,10.85766372680664 21.169,10.85766372680664 L 113.438,10.85766372680664 C 117.974,9.962682016754151 118.867,6.570437649536134 118.867,6.570437649536134 C 119.433,0.8127736846923835 112.711,0.4916970573425303 112.711,0.4916970573425303 L 22.627,0.4916970573425303 C 27.325,2.0916513622283937 27.209,5.636678569030762 27.209,5.636678569030762 Z M 27.209,5.636678569030762 L 20.56,5.636678569030762 C 20.56,5.636678569030762 16.227999999999998,5.866240602111817 17.360999999999997,9.512864519500733 C 17.360999999999997,9.512864519500733 18.735999999999997,11.109716634750367 20.559999999999995,10.887910075759887 C 20.561,10.887910075759887 26.85,10.524953888320923 27.209,5.636678569030762 Z M 13.429,79.28576272277832 L 6.942,79.28576272277832 C 6.942,79.28576272277832 13.347999999999999,77.31819894599914 8.123000000000001,74.53553484230042 C 8.123000000000001,74.53553484230042 3.3840000000000012,72.2321590373993 0.5890000000000013,78.0859908809662 C 0.5890000000000013,78.0859908809662 -0.8689999999999987,84.41988657073975 8.001000000000001,84.61222232818604 C 8.001,84.6129978755951 13.145,83.94059827194214 13.429,79.28576272277832 Z M 13.591,74.10355493545532 L 6.969,74.10355493545532 C 6.969,74.10355493545532 13.666,76.75049824256897 6.9430000000000005,79.28653827018738 L 13.716000000000001,79.28653827018738 L 13.591,74.10355493545532 Z" fill="rgb(255, 255, 255)" stroke="rgb(50, 152, 218)" stroke-width="1.5"/></g><g transform="translate(516.175, 819.6000006732493) rotate(0, 38.5, 0)" width="77" height="55"><text text-decoration="none" x="5.5" fill="#3a87bd" font-size="11pt" font-family="Lato"  y="16">-Attribute</text><text text-decoration="none" x="71.5" fill="#3a87bd" font-size="11pt" font-family="Lato"  y="16"></text><text text-decoration="none" x="5.5" fill="#3a87bd" font-size="11pt" font-family="Lato"  y="37">-Attribute</text><text text-decoration="none" x="71.5" fill="#3a87bd" font-size="11pt" font-family="Lato"  y="37"></text><text text-decoration="none" x="3.5" fill="#3a87bd" font-size="11pt" font-family="Lato"  y="59">-Attribute&#160;</text><text text-decoration="none" x="73.5" fill="#4b4b4b" font-size="10pt" font-family="noto_regular"  y="59"></text></g></g><g id="brx5u646cb"><g transform="translate(505 780)"><path d="M 109.65838737487793,0.5 L 0.3416149139404297,0.5 L 0.3416149139404297,40.5 L 109.65838737487793,40.5 L 109.65838737487793,0.5" fill="rgb(94, 150, 206)" stroke="rgb(94, 150, 206)" stroke-width="1" stroke-linecap="round" stroke-linejoin="round" vector-effect="non-scaling-stroke"/></g><g transform="translate(522.0499994050265, 789.6) rotate(0, 0, 0)" width="86" height="19"><text text-decoration="none" x="0" fill="#ffffff" font-size="11pt" font-family="Lato"  y="17">Dimension&#160;</text><text text-decoration="none" x="79" fill="#4b4b4b" font-size="10pt" font-family="noto_regular"  y="17"></text></g></g><g id="3j3wbqiy1u"><g><path d="M 640,690 L 640,735.5 L 600,735.5 L 560,735.5 L 560,780" fill="none" stroke="#5e96ce" stroke-width="1.5" stroke-linecap="round" stroke-linejoin="round"/></g></g><g id="1hroba812a"><g><path d="M 640,690 L 640,735.5 L 660,735.5 L 680,735.5 L 680,780" fill="none" stroke="#5e96ce" stroke-width="1.5" stroke-linecap="round" stroke-linejoin="round"/></g></g><g id="4jtt51gmnz"><g><path d="M 780,690 L 780,735 L 807.5,735 L 835,735 L 835,780" fill="none" stroke="#5e96ce" stroke-width="1.5" stroke-linecap="round" stroke-linejoin="round"/></g></g><g id="81gir68xat"><g transform="translate(620 805)"><path d="M 13.716,79.63553460426331 L 13.716,73.55834510688783 L 13.716,5.636678569030762 C 13.716,5.636678569030762 13.959,1.25948899230957 19.305,0.4916970573425289 C 19.305,0.4916970573425289 24.975,-0.6599908451080327 27.082,4.714552699661255 C 27.082,4.714552699661255 28.54,10.282207549285888 20.197000000000003,10.985629049301147 L 105.09400000000001,10.985629049301147 L 105.82300000000001,10.985629049301147 L 105.82300000000001,78.99570799179078 C 105.82300000000001,78.99570799179078 105.742,83.92353622894288 99.18,84.56181174659729 L 9.99,84.56181174659729 L 9.341,84.56181174659729 C 13.716,82.06610018424988 13.716,79.63553460426331 13.716,79.63553460426331 Z M 27.209,5.636678569030762 C 27.174,10.141057920837403 21.169,10.85766372680664 21.169,10.85766372680664 L 113.438,10.85766372680664 C 117.974,9.962682016754151 118.867,6.570437649536134 118.867,6.570437649536134 C 119.433,0.8127736846923835 112.711,0.4916970573425303 112.711,0.4916970573425303 L 22.627,0.4916970573425303 C 27.325,2.0916513622283937 27.209,5.636678569030762 27.209,5.636678569030762 Z M 27.209,5.636678569030762 L 20.56,5.636678569030762 C 20.56,5.636678569030762 16.227999999999998,5.866240602111817 17.360999999999997,9.512864519500733 C 17.360999999999997,9.512864519500733 18.735999999999997,11.109716634750367 20.559999999999995,10.887910075759887 C 20.561,10.887910075759887 26.85,10.524953888320923 27.209,5.636678569030762 Z M 13.429,79.28576272277832 L 6.942,79.28576272277832 C 6.942,79.28576272277832 13.347999999999999,77.31819894599914 8.123000000000001,74.53553484230042 C 8.123000000000001,74.53553484230042 3.3840000000000012,72.2321590373993 0.5890000000000013,78.0859908809662 C 0.5890000000000013,78.0859908809662 -0.8689999999999987,84.41988657073975 8.001000000000001,84.61222232818604 C 8.001,84.6129978755951 13.145,83.94059827194214 13.429,79.28576272277832 Z M 13.591,74.10355493545532 L 6.969,74.10355493545532 C 6.969,74.10355493545532 13.666,76.75049824256897 6.9430000000000005,79.28653827018738 L 13.716000000000001,79.28653827018738 L 13.591,74.10355493545532 Z" fill="rgb(255, 255, 255)" stroke="rgb(50, 152, 218)" stroke-width="1.5"/></g><g transform="translate(641.175, 819.6000006732493) rotate(0, 38.5, 0)" width="77" height="55"><text text-decoration="none" x="5.5" fill="#3a87bd" font-size="11pt" font-family="Lato"  y="16">-Attribute</text><text text-decoration="none" x="71.5" fill="#3a87bd" font-size="11pt" font-family="Lato"  y="16"></text><text text-decoration="none" x="5.5" fill="#3a87bd" font-size="11pt" font-family="Lato"  y="37">-Attribute</text><text text-decoration="none" x="71.5" fill="#3a87bd" font-size="11pt" font-family="Lato"  y="37"></text><text text-decoration="none" x="3.5" fill="#3a87bd" font-size="11pt" font-family="Lato"  y="59">-Attribute&#160;</text><text text-decoration="none" x="73.5" fill="#4b4b4b" font-size="10pt" font-family="noto_regular"  y="59"></text></g></g><g id="srw9wfmzpx"><g transform="translate(630 780)"><path d="M 109.65838737487793,0.5 L 0.3416149139404297,0.5 L 0.3416149139404297,40.5 L 109.65838737487793,40.5 L 109.65838737487793,0.5" fill="rgb(94, 150, 206)" stroke="rgb(94, 150, 206)" stroke-width="1" stroke-linecap="round" stroke-linejoin="round" vector-effect="non-scaling-stroke"/></g><g transform="translate(647.0499994050265, 789.6) rotate(0, 0, 0)" width="86" height="19"><text text-decoration="none" x="0" fill="#ffffff" font-size="11pt" font-family="Lato"  y="17">Dimension&#160;</text><text text-decoration="none" x="79" fill="#4b4b4b" font-size="10pt" font-family="noto_regular"  y="17"></text></g></g><g id="2yefin08zh"><g transform="translate(775 810)"><path d="M 13.716,79.63553460426331 L 13.716,73.55834510688783 L 13.716,5.636678569030762 C 13.716,5.636678569030762 13.959,1.25948899230957 19.305,0.4916970573425289 C 19.305,0.4916970573425289 24.975,-0.6599908451080327 27.082,4.714552699661255 C 27.082,4.714552699661255 28.54,10.282207549285888 20.197000000000003,10.985629049301147 L 105.09400000000001,10.985629049301147 L 105.82300000000001,10.985629049301147 L 105.82300000000001,78.99570799179078 C 105.82300000000001,78.99570799179078 105.742,83.92353622894288 99.18,84.56181174659729 L 9.99,84.56181174659729 L 9.341,84.56181174659729 C 13.716,82.06610018424988 13.716,79.63553460426331 13.716,79.63553460426331 Z M 27.209,5.636678569030762 C 27.174,10.141057920837403 21.169,10.85766372680664 21.169,10.85766372680664 L 113.438,10.85766372680664 C 117.974,9.962682016754151 118.867,6.570437649536134 118.867,6.570437649536134 C 119.433,0.8127736846923835 112.711,0.4916970573425303 112.711,0.4916970573425303 L 22.627,0.4916970573425303 C 27.325,2.0916513622283937 27.209,5.636678569030762 27.209,5.636678569030762 Z M 27.209,5.636678569030762 L 20.56,5.636678569030762 C 20.56,5.636678569030762 16.227999999999998,5.866240602111817 17.360999999999997,9.512864519500733 C 17.360999999999997,9.512864519500733 18.735999999999997,11.109716634750367 20.559999999999995,10.887910075759887 C 20.561,10.887910075759887 26.85,10.524953888320923 27.209,5.636678569030762 Z M 13.429,79.28576272277832 L 6.942,79.28576272277832 C 6.942,79.28576272277832 13.347999999999999,77.31819894599914 8.123000000000001,74.53553484230042 C 8.123000000000001,74.53553484230042 3.3840000000000012,72.2321590373993 0.5890000000000013,78.0859908809662 C 0.5890000000000013,78.0859908809662 -0.8689999999999987,84.41988657073975 8.001000000000001,84.61222232818604 C 8.001,84.6129978755951 13.145,83.94059827194214 13.429,79.28576272277832 Z M 13.591,74.10355493545532 L 6.969,74.10355493545532 C 6.969,74.10355493545532 13.666,76.75049824256897 6.9430000000000005,79.28653827018738 L 13.716000000000001,79.28653827018738 L 13.591,74.10355493545532 Z" fill="rgb(255, 255, 255)" stroke="rgb(50, 152, 218)" stroke-width="1.5"/></g><g transform="translate(796.175, 824.6000006732493) rotate(0, 38.5, 0)" width="77" height="55"><text text-decoration="none" x="5.5" fill="#3a87bd" font-size="11pt" font-family="Lato"  y="16">-Attribute</text><text text-decoration="none" x="71.5" fill="#3a87bd" font-size="11pt" font-family="Lato"  y="16"></text><text text-decoration="none" x="5.5" fill="#3a87bd" font-size="11pt" font-family="Lato"  y="37">-Attribute</text><text text-decoration="none" x="71.5" fill="#3a87bd" font-size="11pt" font-family="Lato"  y="37"></text><text text-decoration="none" x="3.5" fill="#3a87bd" font-size="11pt" font-family="Lato"  y="59">-Attribute&#160;</text><text text-decoration="none" x="73.5" fill="#4b4b4b" font-size="10pt" font-family="noto_regular"  y="59"></text></g></g><g id="2kh3dhznjg"><g transform="translate(785 785)"><path d="M 109.65838737487793,0.5 L 0.3416149139404297,0.5 L 0.3416149139404297,40.5 L 109.65838737487793,40.5 L 109.65838737487793,0.5" fill="rgb(94, 150, 206)" stroke="rgb(94, 150, 206)" stroke-width="1" stroke-linecap="round" stroke-linejoin="round" vector-effect="non-scaling-stroke"/></g><g transform="translate(802.0499994050265, 794.6) rotate(0, 0, 0)" width="86" height="19"><text text-decoration="none" x="0" fill="#ffffff" font-size="11pt" font-family="Lato"  y="17">Dimension&#160;</text><text text-decoration="none" x="79" fill="#4b4b4b" font-size="10pt" font-family="noto_regular"  y="17"></text></g></g></svg>